<svg viewBox="0 0 260 180" fill="none" xmlns="http://www.w3.org/2000/svg">
<rect x="25" y="20" width="210" height="40" rx="4" fill="var(--color-contrast-lower)"/>
<rect x="170" y="31" width="54" height="18" rx="2" fill="var(--color-primary)"/>
<rect x="186" y="38" width="22" height="4" fill="var(--color-bg)"/>
<rect x="61" y="32" width="47" height="7" fill="var(--color-contrast-high)"/>
<rect x="61" y="43" width="64" height="5" fill="var(--color-contrast-medium)"/>
<path d="M33 30C33 28.8954 33.8954 28 35 28H46L53 35V50C53 51.1046 52.1046 52 51 52H35C33.8954 52 33 51.1046 33 50V30Z" fill="var(--color-contrast-medium)"/>
<path d="M53 35L46 28V35H53Z" fill="var(--color-contrast-low)"/>
<rect x="36" y="37" width="14" height="2" fill="var(--color-bg)"/>
<rect x="36" y="41" width="14" height="2" fill="var(--color-bg)"/>
<rect x="36" y="45" width="7" height="2" fill="var(--color-bg)"/>
<rect x="25" y="70" width="210" height="40" rx="4" fill="var(--color-contrast-lower)"/>
<rect x="170" y="81" width="54" height="18" rx="2" fill="var(--color-primary)"/>
<path d="M197 85L197 95" stroke="var(--color-bg)" stroke-width="2" stroke-linecap="round" stroke-linejoin="round"/>
<path d="M201 91L197 95L193 91" stroke="var(--color-bg)" stroke-width="2" stroke-linecap="round" stroke-linejoin="round"/>
<rect x="61" y="82" width="47" height="7" fill="var(--color-contrast-high)"/>
<rect x="61" y="93" width="64" height="5" fill="var(--color-contrast-medium)"/>
<path d="M33 80C33 78.8954 33.8954 78 35 78H46L53 85V100C53 101.105 52.1046 102 51 102H35C33.8954 102 33 101.105 33 100V80Z" fill="var(--color-contrast-medium)"/>
<path d="M53 85L46 78V85H53Z" fill="var(--color-contrast-low)"/>
<rect x="36" y="87" width="14" height="2" fill="var(--color-bg)"/>
<rect x="36" y="91" width="14" height="2" fill="var(--color-bg)"/>
<rect x="36" y="95" width="7" height="2" fill="var(--color-bg)"/>
<rect x="25" y="120" width="210" height="40" rx="4" fill="var(--color-contrast-lower)"/>
<rect x="170" y="131" width="54" height="18" rx="2" fill="var(--color-primary)"/>
<rect x="186" y="138" width="22" height="4" fill="var(--color-bg)"/>
<rect x="61" y="132" width="47" height="7" fill="var(--color-contrast-high)"/>
<rect x="61" y="143" width="64" height="5" fill="var(--color-contrast-medium)"/>
<path d="M33 130C33 128.895 33.8954 128 35 128H46L53 135V150C53 151.105 52.1046 152 51 152H35C33.8954 152 33 151.105 33 150V130Z" fill="var(--color-contrast-medium)"/>
<path d="M53 135L46 128V135H53Z" fill="var(--color-contrast-low)"/>
<rect x="36" y="137" width="14" height="2" fill="var(--color-bg)"/>
<rect x="36" y="141" width="14" height="2" fill="var(--color-bg)"/>
<rect x="36" y="145" width="7" height="2" fill="var(--color-bg)"/>
<path d="M215 93L224.8 121L229.169 111.169L240 122L244.243 117.757L233.505 107.02L243 102.8L215 93Z" fill="var(--color-contrast-higher)"/>
</svg>
